<?xml version="1.0" encoding="UTF-8"?>
<svg version="1.1" viewBox="0 0 1308 1312" width="1280" height="1280" xmlns="http://www.w3.org/2000/svg">
<path transform="translate(0)" d="m0 0h1308v1312h-1308z" fill="#FDFDFD"/>
<path transform="translate(875,71)" d="m0 0 3 1 4 15 21 91 11 45 12 53 10 41 13 57 10 41 13 57 12 50 11 49 9 36 15 66 3 14-12 44-15 53-5 16-2 3-23 6-178 42-29 7-48 11-59 14-48 11-37 9-38 8-21 3h-28l-18-3-17-5-16-8-12-9-10-9-8-9-10-15-8-16-7-19-10-37-16-70-10-40-13-57-9-36-14-63-11-45-12-55-4-25v-30l4-20 7-19 9-16 10-11 12-12 15-10 16-8 14-6 46-14 12-6 10-8 11-11 10-13 10-14 9-10 8-8 15-10 12-6 21-6 41-9 58-14 42-10 38-10 46-11 43-11 52-12z" fill="#AFCE74"/>
<path transform="translate(875,71)" d="m0 0 3 1 4 15 21 91 11 45 12 53 10 41 13 57 10 41 13 57 12 50 11 49 9 36 15 66 3 14-12 44-15 53-5 16-2 3-23 6-178 42-29 7-48 11-59 14-48 11-37 9-38 8-21 3h-28l-18-3-17-5-16-8-12-9-10-9-8-9-10-15-8-16-7-19-10-37-16-70-10-40-13-57-9-36-14-63-11-45-12-55-4-25v-30l4-20 7-19 9-16 10-11 12-12 15-10 16-8 14-6 46-14 12-6 10-8 11-11 10-13 10-14 9-10 8-8 15-10 12-6 21-6 41-9 58-14 42-10 38-10 46-11 43-11 52-12zm-39 251-10 3-66 16-46 10-32 8-44 10-34 8-40 10-49 11-43 11-32 7-40 7-25 2h-11l-22-2-20-7-6-3-3 1 9 40 7 29 11 50 14 57 9 41 14 57 11 49 11 43 7 25 8 19 11 18 8 10 8 8 13 9 12 6 10 3 7 1h19l14-1 31-7 37-9 58-13 40-10 57-13 44-11 56-13 40-10 52-12 13-4-1-10-11-49-9-36-9-40-7-31-11-44-11-50-10-40-6-27-7-32-8-30-9-39-5-22-2-4z" fill="#2D3338"/>
<path transform="translate(860,101)" d="m0 0h5l4 16 6 28 11 47 14 65 10 41 11 52 13 55 8 38 7 31 8 33 12 56 11 46 10 48 5 20-1 5-11 43-5 19-2 1-4-11-7-28-8-37-9-37-6-24-8-38-14-57-13-58-10-40-12-53-12-49-6-28-1-7-11 2-44 11-41 9-70 17-41 9-48 12-45 10-66 16-36 8-44 11-22 4-13 1h-19l-14-1-15-5-10-6-7-7-3-7v-15l5-12 8-11 8-9 12-9 12-7 15-6 14-4 6-1h23l12 4 10 6 11 11 6 7 10 6 10 3 7 1h12l19-3 39-9 44-12 50-12 45-12 58-14 38-10 46-11 19-5 2-5 1-12-22 5-40 9-46 11-50 11-41 10-63 14-41 10-6 1h-10l-5-6 1-10 7-8 10-4 48-11 45-10 44-11 49-11 54-13 57-13 10-2v-17l-28 6-38 9-39 9-49 11-37 9-55 12-46 11-12 3-12 1-5-4-2-3v-6l5-8 6-5 48-12 50-11 59-14 54-12 41-10 49-11 14-3v-18l-35 8-38 9-71 16-46 11-55 12-37 9-30 7-5-1-7-6v-7l6-8 5-4 24-7 97-23 41-10 48-11 57-14 31-7z" fill="#FBF8D0"/>
<path transform="translate(688,1014)" d="m0 0h10l6 3 4 8 1 57h60l1-38 1-17 4-8 5-4 3-1h9l6 3 3 4 2 6v28l-1 91-1 28-3 9-5 4-9 2-9-3-4-6-2-8v-59l-62-1v60l-2 9-5 5-7 3-9-1-6-5-3-8v-79l1-61 2-12 4-6z" fill="#2D3338"/>
<path transform="translate(1021,1069)" d="m0 0h24l20 4 12 5 11 7 8 9 8 16 3 13v14l-3 12-6 10-7 6-14 7-18 5-19 3-1 8v28l-2 17-3 6-5 4h-12l-6-4-3-5-1-4v-144l2-8 5-6z" fill="#2D3338"/>
<path transform="translate(249,1014)" d="m0 0h23l12 3 12 6 10 9 6 10 3 7 1 7-2 7-4 4-11 2-6-3-11-12-10-5-4-1h-12l-12 5-7 7-8 16-4 16-1 15 2 16 3 10 7 11 9 7 11 4h13l10-4 11-7 7-5 3-1h9l5 2 4 6 1 3v8l-5 10-11 10-10 6-14 5-5 1h-21l-15-3-12-5-12-8-8-7-7-10-5-12-4-16-1-8v-23l2-18 4-15 8-16 10-13 9-9 14-8z" fill="#2D3338"/>
<path transform="translate(498,1072)" d="m0 0 18 1 13 4 11 7 8 8 6 10 2 6 1 13-2 8-4 6-6 4-14 2h-49l-1 1 3 7 7 6 9 3h16l26-6 7 1 5 5v9l-6 8-8 5-16 5-6 1h-19l-15-3-12-6-8-7-6-9-4-10-2-11v-14l3-17 4-9 7-11 10-9 12-6z" fill="#2D3338"/>
<path transform="translate(869,1072)" d="m0 0 16 1 15 5 10 7 8 8 6 12 1 5v15l-3 8-6 5-6 2-8 1h-51l1 7 8 7 9 3h16l26-6 7 1 5 5v9l-6 8-8 5-16 5-7 1h-18l-15-3-12-6-9-8-7-12-3-10-1-15 2-18 3-10 6-11 9-10 13-8 6-2z" fill="#2D3338"/>
<path transform="translate(348,1013)" d="m0 0h10l6 5 3 7 1 14 1 42 12-2h17l13 5 11 8 6 9 4 13 1 8v46l-2 11-3 5-3 2h-10l-6-5-3-9-2-45-3-10-3-5-4-2h-13l-7 4-4 10-1 6-1 35-2 12-4 7-7 3-10-2-5-5-2-9v-144l3-9 4-4z" fill="#2D3338"/>
<path transform="translate(629,1025)" d="m0 0 12 1 8 4 5 6 1 3v7l-3 5-5 3-13 2-5 4-1 4v15l1 2 16 3 5 3 2 4-1 7-4 5-7 3-11 1-1 17-1 49-3 9-6 5-8 1-8-4-3-5-1-4-1-69-14-2-5-3-2-3v-8l5-6 6-2 9-1 2-25 3-12 5-9 6-5 10-4z" fill="#2D3338"/>
<path transform="translate(960,1016)" d="m0 0h12l6 4 4 8 1 10v130l-2 9-4 6-6 3h-9l-8-4-3-6-1-4v-143l3-8 4-4z" fill="#2D3338"/>
<path transform="translate(1040,1103)" d="m0 0 11 1 14 5 9 8 2 5v9l-4 8-5 4-9 4-17 3-2-1v-45z" fill="#FCFDF9"/>
<path transform="translate(873,1097)" d="m0 0h10l8 4 6 7 3 5v4h-48l1-5 7-9 6-4z" fill="#FBFCF6"/>
<path transform="translate(504,1097)" d="m0 0h9l7 3 5 4 6 9v4h-47v-5l7-9 7-4z" fill="#FBFCF5"/>
</svg>
